# xmcd
# 
# Track frame offsets:
#     150
#     12386
#     30964
#     45081
#     55696
#     68872
#     80704
#     92841
#     107507
#     119144
#     134809
#     149222
#     169343
#     187335
#     196190
#     209787
#     223502
#     236593
#     259551
#     273866
#     288821
#     304527
#     325030
#     344590
# 
# Disc length: 4785
# 
# Revision: 3
# Processed by: cddbd v1.5.2PL0 Copyright (c) Steve Scherf et al.
# Submitted via: fre:ac v1.0.17
# 
DISCID=7112af18
DTITLE=Willie Nelson - Shotgun Willie
DYEAR=2006
DGENRE=Country
TTITLE0=Shotgun Willie
TTITLE1=Whiskey River
TTITLE2=Sad Songs And Waltzes
TTITLE3=Local Memory
TTITLE4=Slow Down Old World
TTITLE5=Stay All Night (Stay A Little Longer)
TTITLE6=Devil In A Sleepin' Bag
TTITLE7=She's Not For You
TTITLE8=Bubbles In My Beer
TTITLE9=You Look Like The Devil
TTITLE10=So Much To Do
TTITLE11=A Song For You
TTITLE12=I Gotta Have Something I Ain't Got
TTITLE13=I'm So Ashamed
TTITLE14=My Cricket And Me
TTITLE15=Both Ends Of The Candle
TTITLE16=Slow Down Old World
TTITLE17=Under The Double Eagle
TTITLE18=So Much To Do
TTITLE19=My Cricket And Me
TTITLE20=Save Your Tears
TTITLE21=A Song For You
TTITLE22=Whiskey River
TTITLE23=I Drank All Of Our Precious Love Away
EXTD=
EXTT0=
EXTT1=
EXTT2=
EXTT3=
EXTT4=
EXTT5=
EXTT6=
EXTT7=
EXTT8=
EXTT9=
EXTT10=
EXTT11=
EXTT12=
EXTT13=
EXTT14=
EXTT15=
EXTT16=
EXTT17=
EXTT18=
EXTT19=
EXTT20=
EXTT21=
EXTT22=
EXTT23=
PLAYORDER=
